<?xml version="1.0" standalone="no"?>
<!DOCTYPE svg PUBLIC "-//W3C//DTD SVG 20010904//EN"
 "http://www.w3.org/TR/2001/REC-SVG-20010904/DTD/svg10.dtd">
<svg version="1.0" xmlns="http://www.w3.org/2000/svg"
 width="245.000000pt" height="206.000000pt" viewBox="0 0 245.000000 206.000000"
 preserveAspectRatio="xMidYMid meet">

<g transform="translate(0.000000,206.000000) scale(0.100000,-0.100000)"
fill="#000000" stroke="none">
<path d="M1088 2011 c-124 -27 -182 -47 -275 -96 -542 -285 -690 -995 -308
-1475 154 -193 349 -308 604 -355 152 -28 336 -11 495 44 304 107 546 382 623
707 26 114 24 340 -5 446 -120 443 -477 729 -927 744 -92 3 -140 -1 -207 -15z
m343 -225 c306 -65 557 -343 586 -650 l6 -69 -89 6 c-111 6 -265 -7 -369 -34
-182 -46 -354 -160 -409 -271 -29 -57 -35 -138 -14 -183 15 -33 87 -70 175
-91 178 -41 418 44 559 198 51 56 123 180 125 214 0 11 3 13 6 7 8 -22 -27
-125 -75 -218 -36 -69 -66 -109 -132 -176 -73 -74 -100 -93 -190 -138 -124
-61 -208 -81 -346 -81 -129 0 -225 24 -347 87 -166 86 -304 248 -365 430 -24
71 -26 92 -26 233 0 141 2 162 26 233 84 251 301 447 552 502 81 18 245 18
327 1z"/>
<path d="M1200 1544 c-105 -19 -222 -84 -289 -160 -64 -72 -139 -239 -118
-261 3 -3 24 9 46 26 57 45 232 126 326 150 164 42 331 58 457 44 l78 -9 -24
30 c-42 57 -136 124 -210 151 -70 26 -203 41 -266 29z"/>
</g>
</svg>
